<svg width="439" height="331" fill="none" xmlns="http://www.w3.org/2000/svg"><path d="M492.958 125.756l-45.816 31.671c-9.925 6.861-23.544.313-24.383-11.723l-3.248-46.57c-.585-8.385-7.72-14.791-16.119-14.474l-80.749 3.057a15.567 15.567 0 01-14.304-8.192l-28.957-53.918a15.567 15.567 0 00-18.023-7.595l-45.777 13.183a15.568 15.568 0 01-16.309-5.043l-66.272-80.2" stroke="#FF5058" stroke-width="3.114"/><path d="M577.848 199.271l-24.482-76.644a15.568 15.568 0 00-16.278-10.763l-54.825 5.12c-8.617.804-16.236-5.573-16.961-14.196l-3.854-45.825a15.568 15.568 0 00-14.606-14.237L340.16 36.497c-12.665-.74-19.175-15.505-11.179-25.354l12.963-15.965c7.792-9.597 1.828-24.01-10.467-25.296L198.313-44.046a15.57 15.57 0 01-7.088-2.579L85.92-117.683" stroke="#38B3FF" stroke-width="3.114"/></svg>