<svg width="476" height="246" fill="none" xmlns="http://www.w3.org/2000/svg"><path d="M-10.409 228.876a13.061 13.061 0 012.077-14.437L101.109 93.427a13.062 13.062 0 0113.973-3.578l140.442 48.777a13.065 13.065 0 017.818 7.427l32.389 79.808a13.063 13.063 0 01-.916 11.655l-89.921 149.187a13.06 13.06 0 01-13.152 6.17L65.773 373.702a13.061 13.061 0 01-9.799-7.237l-66.383-137.589z" fill="#38B3FF"/><path d="M260.037 231.403a11.563 11.563 0 01-1.952 12.763L147.574 364.202a11.562 11.562 0 01-12.396 3.056L-4.825 317.237a11.565 11.565 0 01-6.862-6.635l-31.68-80.092a11.562 11.562 0 01.903-10.309L48.778 71.818a11.562 11.562 0 0111.69-5.359L186.26 86.747a11.56 11.56 0 018.616 6.483l65.16 138.173z" stroke="#FF5058" stroke-width="3"/><path d="M325.178 218.709a11.561 11.561 0 017.06 10.809l-2.25 163.145a11.563 11.563 0 01-7.195 10.547l-137.667 56.133a11.563 11.563 0 01-9.538-.366l-77.03-38.532a11.562 11.562 0 01-6.205-8.282L61.337 240.755a11.562 11.562 0 015.134-11.79l107.246-68.803a11.56 11.56 0 0110.744-.919l140.717 59.466z" stroke="#C8EAFF" stroke-width="3"/></svg>